<svg xmlns="http://www.w3.org/2000/svg" width="79" height="64" fill="none" viewBox="0 0 79 64">
  <path fill="#BBBBBB" d="M22.306 62.23c-5.922.545-10.834.817-14.738.817-2.602 0-4.514-.627-5.736-1.88C.611 59.916 0 57.955 0 55.286V42.213c0-2.86.624-4.93 1.872-6.21 1.275-1.307 3.306-1.96 6.094-1.96h14.34v5.719H9.56c-1.594 0-2.39.817-2.39 2.45v13.073c0 .627.172 1.13.518 1.512.371.354.836.53 1.394.53h1.832a718.44 718.44 0 012.071-.081l2.151-.082a84.128 84.128 0 002.828-.163c1.169-.082 2.616-.177 4.342-.286v5.515zM31.183 57.6c1.195 0 2.548-.272 4.058-.817v-2.451h-4.904c-.338 0-.62.136-.845.408-.226.273-.338.613-.338 1.022v.408c0 .409.113.75.338 1.021.225.273.507.409.845.409h.846zm-6.257-15.932c4.126-.545 7.847-.817 11.16-.817 1.534 0 2.763.558 3.687 1.675.924 1.117 1.387 2.6 1.387 4.453V62.91h-5.242l-.338-2.043c-1.06.844-2.154 1.47-3.281 1.88-1.105.38-2.04.571-2.807.571h-1.184c-1.533 0-2.762-.558-3.686-1.675-.924-1.116-1.387-2.6-1.387-4.453v-1.838c0-1.852.463-3.336 1.387-4.453.924-1.116 2.153-1.675 3.686-1.675h6.933v-1.633c0-.409-.112-.75-.338-1.022a1.054 1.054 0 00-.845-.408c-1.466 0-3.09.081-4.87.245-1.759.163-3.18.286-4.262.368v-5.107zM51.977 47.786c-1.215 0-2.47.403-3.762 1.21V63.32h-5.064V41.935h4.486l.289 2.623c1.66-2.017 3.395-3.026 5.209-3.026h1.302v6.254h-2.46zM62.403 62.907a12.962 12.962 0 01-3.147.412c-.983 0-1.811-.563-2.483-1.69-.672-1.128-1.008-2.626-1.008-4.495V34.042h4.303v22.061c0 .412.081.756.245 1.03.164.276.37.413.615.413h1.475v5.36zM71.697 57.464c0 2.042-.242 3.65-.726 4.82C70.498 63.428 69.839 64 68.994 64h-3.887c-.845 0-1.51-.572-1.994-1.716-.473-1.17-.71-2.778-.71-4.82v-9.396c0-2.042.237-3.636.71-4.78.484-1.17 1.15-1.756 1.994-1.756h3.887c.845 0 1.504.586 1.977 1.757.484 1.143.726 2.736.726 4.78v9.395zM68.74 48.68c0-1.09-.225-1.634-.676-1.634h-2.027c-.451 0-.677.545-.677 1.634v8.17c0 1.09.226 1.634.677 1.634h2.027c.45 0 .676-.545.676-1.634v-8.17zM71.833 57.759c1.83.416 3.272.624 4.327.624.135 0 .248-.139.338-.416.09-.277.135-.624.135-1.04V55.47h-2.907c-.613 0-1.104-.57-1.474-1.706-.37-1.138-.554-2.65-.554-4.536v-1.456c0-1.886.184-3.398.554-4.535.37-1.137.86-1.706 1.474-1.706h4.598v5.409h-3.787c-.135 0-.248.139-.338.416-.09.277-.135.624-.135 1.04 0 .416.045.763.135 1.04.09.278.203.416.338.416h2.435c.613 0 1.104.57 1.474 1.706.37 1.138.554 2.65.554 4.536v1.664c0 1.886-.185 3.398-.554 4.535-.37 1.137-.861 1.706-1.474 1.706-1.596 0-3.31-.277-5.14-.832v-5.41zM3.014 22.672c7.276.409 12.202.613 14.778.613.61 0 1.088-.177 1.434-.531.371-.381.557-.885.557-1.511v-3.677h-9.161c-2.788 0-4.82-.64-6.094-1.92-1.248-1.307-1.872-3.39-1.872-6.25V8.17c0-2.86.624-4.93 1.872-6.21C5.802.655 7.834 0 10.622 0h13.98v5.72H12.216c-1.593 0-2.39.816-2.39 2.45v.817c0 1.634.797 2.451 2.39 2.451h7.17c2.602 0 4.514.627 5.736 1.88 1.221 1.252 1.832 3.213 1.832 5.882v2.043c0 2.669-.61 4.63-1.832 5.882-1.222 1.253-3.134 1.88-5.736 1.88-1.354 0-2.788-.028-4.302-.082l-3.665-.164c-2.708-.136-5.51-.327-8.404-.572v-5.515zM43.151 28.445c-4.138.554-7.79.832-10.954.832-1.504 0-2.71-.569-3.618-1.706-.907-1.138-1.36-2.65-1.36-4.536v-9.57c0-2.08.464-3.702 1.394-4.867.951-1.193 2.257-1.79 3.916-1.79h10.622v5.618h-8.796c-.885 0-1.328.554-1.328 1.664v8.113c0 .416.111.763.332 1.04.222.278.498.417.83.417 1.992 0 4.98-.208 8.962-.625v5.41z"/>
  <path fill="#BBBBBB" d="M49.921 23.558c1.018 0 2.17-.273 3.458-.818v-2.45H49.2c-.288 0-.528.136-.72.408-.192.272-.288.613-.288 1.021v.409c0 .408.096.749.288 1.021.192.272.432.409.72.409h.72zm-5.33-15.932c3.515-.545 6.684-.817 9.508-.817 1.306 0 2.353.558 3.14 1.674.787 1.117 1.181 2.601 1.181 4.453v15.932h-4.465l-.288-2.042c-.903.844-1.835 1.47-2.795 1.879-.941.381-1.738.572-2.391.572h-1.008c-1.306 0-2.353-.559-3.14-1.675-.788-1.117-1.182-2.601-1.182-4.453v-1.838c0-1.852.394-3.337 1.181-4.453.788-1.117 1.835-1.675 3.14-1.675h5.907v-1.634c0-.409-.096-.749-.289-1.021-.192-.273-.432-.409-.72-.409-1.248 0-2.631.082-4.148.245-1.498.164-2.708.286-3.63.368V7.626zM72.349 23.558c.796 0 1.698-.273 2.705-.818v-2.45h-3.269c-.225 0-.413.136-.563.408-.15.272-.226.613-.226 1.021v.409c0 .408.075.749.226 1.021.15.272.338.409.563.409h.564zM68.178 7.626c2.75-.545 5.23-.817 7.44-.817 1.022 0 1.841.558 2.458 1.674.616 1.117.924 2.601.924 4.453v15.932h-3.495l-.225-2.042c-.707.844-1.436 1.47-2.187 1.879-.737.381-1.36.572-1.871.572h-.79c-1.022 0-1.84-.559-2.457-1.675-.616-1.117-.925-2.601-.925-4.453v-1.838c0-1.852.309-3.337.925-4.453.616-1.117 1.435-1.675 2.457-1.675h4.622v-1.634c0-.409-.075-.749-.225-1.021-.15-.273-.338-.409-.564-.409-.977 0-2.059.082-3.246.245a116.4 116.4 0 01-2.841.368V7.626zM67.05 28.864a12.967 12.967 0 01-3.147.413c-.983 0-1.811-.564-2.483-1.691-.672-1.127-1.008-2.625-1.008-4.495V0h4.303v22.06c0 .413.081.757.245 1.031.164.275.37.413.615.413h1.475v5.36z"/>
</svg>
