<svg width="266" height="51" viewBox="0 0 266 51" fill="none" xmlns="http://www.w3.org/2000/svg">
<g opacity="0.7">
<g filter="url(#filter0_d_4_786)">
<rect x="6" y="6" width="38.6454" height="38.6454" rx="4.83068" stroke="url(#paint0_linear_4_786)" stroke-width="1.93227" shape-rendering="crispEdges"/>
</g>
<g filter="url(#filter1_d_4_786)">
<path d="M25.3346 15.6612C22.6338 15.6612 21.0867 16.6588 20.2476 17.499C19.2774 18.4966 18.7529 19.783 18.7529 21.1482C18.7792 24.745 22.3978 25.8214 24.8102 26.6877C27.4849 27.6591 28.7173 28.368 28.7173 29.4706C28.7173 30.3895 28.1666 31.0459 27.4324 31.3872C26.4884 31.8335 25.5182 31.5184 24.6267 31.4659C23.7613 31.4134 23.0271 32.0172 23.0271 33.1199C23.0271 34.4588 24.8627 34.9839 26.2262 34.9839C30.3955 34.9839 32.2048 32.2798 32.2048 29.6807C32.2048 26.4515 29.2417 25.0338 25.8853 23.7473C23.1582 22.6972 22.2405 21.9883 22.2405 21.1482C22.2405 19.8618 23.4729 18.9429 25.2298 18.9429C27.2489 18.9429 28.3502 20.0456 28.8222 20.4656C29.4777 21.0432 30.4217 21.122 31.051 20.3344C31.523 19.7305 31.6017 18.8904 31.1297 18.2603C30.4479 17.2889 28.4026 15.6612 25.3346 15.6612Z" fill="white"/>
<path d="M20.1691 29.0768C19.2251 29.0768 18.4385 29.8382 18.4385 30.8096C18.4385 31.781 19.2251 32.5423 20.1691 32.5423C21.1393 32.5423 21.926 31.781 21.926 30.8096C21.926 29.8382 21.1656 29.0768 20.1691 29.0768Z" fill="white"/>
</g>
<mask id="mask0_4_786" style="mask-type:alpha" maskUnits="userSpaceOnUse" x="59" y="17" width="207" height="20">
<path d="M65.4539 17.2979C62.9947 17.2979 61.5894 18.1762 60.8282 18.9959C59.9499 19.9328 59.4814 21.1038 59.4814 22.3335C59.4814 25.6125 62.819 26.6079 64.9855 27.3691C67.4447 28.2474 68.5573 28.8915 68.5573 29.8869C68.5573 30.7066 68.0303 31.3507 67.3862 31.6435C66.5079 32.0534 65.6296 31.7606 64.8098 31.7021C64.0486 31.6435 63.346 32.229 63.346 33.2245C63.346 34.4541 65.044 34.9225 66.2737 34.9225C70.0797 34.9225 71.7192 32.4633 71.7192 30.0626C71.7192 27.1349 69.0257 25.8467 65.9809 24.6756C63.4631 23.7388 62.6433 23.0947 62.6433 22.3335C62.6433 21.1624 63.7559 20.3426 65.3954 20.3426C67.2105 20.3426 68.2645 21.3381 68.6744 21.7479C69.2599 22.2749 70.1382 22.3335 70.7238 21.6308C71.1336 21.1038 71.2507 20.2841 70.7823 19.7571C70.1382 18.7617 68.2645 17.2979 65.4539 17.2979Z" fill="#208A88"/>
<path d="M259.735 17.2979C257.276 17.2979 255.871 18.1762 255.109 18.9959C254.231 19.9328 253.763 21.1038 253.763 22.3335C253.763 25.6125 257.1 26.6079 259.267 27.3691C261.726 28.2474 262.839 28.8915 262.839 29.8869C262.839 30.7066 262.312 31.3507 261.667 31.6435C260.789 32.0534 259.911 31.7606 259.091 31.7021C258.33 31.6435 257.627 32.229 257.627 33.2245C257.627 34.4541 259.325 34.9225 260.555 34.9225C264.361 34.9225 266 32.4633 266 30.0626C266 27.1349 263.307 25.8467 260.262 24.6756C257.803 23.7388 256.925 23.0947 256.925 22.3335C256.925 21.1624 258.037 20.3426 259.677 20.3426C261.492 20.3426 262.546 21.3381 262.956 21.7479C263.541 22.2749 264.419 22.3335 265.005 21.6308C265.415 21.1038 265.532 20.2841 265.064 19.7571C264.361 18.7617 262.487 17.2979 259.735 17.2979Z" fill="#208A88"/>
<path d="M100.293 17.7077C99.4146 17.7077 98.7119 18.4103 98.7119 19.2887V27.4276C98.7119 31.8777 101.64 34.9225 106.031 34.9225C111.067 34.9225 113.35 31.0579 113.35 27.4276V24.0315C113.35 23.1532 112.648 22.4506 111.769 22.4506C110.891 22.4506 110.188 23.1532 110.188 24.0315V27.3691C110.188 29.477 109.134 31.702 106.09 31.702C102.342 31.702 101.991 28.7158 101.991 27.3691V19.2301C101.874 18.4104 101.171 17.7077 100.293 17.7077Z" fill="#208A88"/>
<path d="M111.711 17.7077C110.833 17.7077 110.13 18.4103 110.13 19.2887C110.13 20.167 110.833 20.8696 111.711 20.8696C112.589 20.8696 113.292 20.167 113.292 19.2887C113.292 18.4103 112.589 17.7077 111.711 17.7077Z" fill="#208A88"/>
<path d="M139.524 17.7077C138.646 17.7077 137.943 18.4103 137.943 19.2887V32.8731C137.943 33.7514 138.646 34.4541 139.524 34.4541C140.403 34.4541 141.105 33.7514 141.105 32.8731V20.7525H143.857C147.429 20.7525 149.303 22.5677 149.303 26.0809C149.303 27.4862 148.893 28.7158 148.19 29.5941C148.015 29.7698 147.78 30.004 147.663 30.2382C147.019 30.8823 147.019 31.8191 147.488 32.4047C148.073 33.0488 149.069 33.1659 149.713 32.5803C151.469 31.0579 152.465 28.6572 152.465 26.1394C152.465 20.9282 149.186 17.7663 143.857 17.7663L139.524 17.7077Z" fill="#208A88"/>
<path d="M203.816 17.7077C202.938 17.7077 202.235 18.4103 202.235 19.2887V32.8731C202.235 33.7514 202.938 34.4541 203.816 34.4541C204.695 34.4541 205.397 33.7514 205.397 32.8731V28.0717L210.96 33.9856C211.604 34.6297 212.599 34.6297 213.185 34.0442C213.829 33.4001 213.829 32.4047 213.243 31.8191L207.33 25.7296L209.437 23.7973C210.082 23.1532 210.082 22.1578 209.437 21.5723C208.793 20.9282 207.798 20.9867 207.212 21.5723L205.397 23.5045V19.2887C205.397 18.4103 204.695 17.7077 203.816 17.7077Z" fill="#208A88"/>
<path d="M211.662 17.7077C210.784 17.7077 210.081 18.4103 210.081 19.2887C210.081 20.167 210.784 20.8696 211.662 20.8696C212.54 20.8696 213.243 20.167 213.243 19.2887C213.302 18.4103 212.54 17.7077 211.662 17.7077Z" fill="#208A88"/>
<path d="M220.504 17.7077C219.626 17.7077 218.923 18.4103 218.923 19.2887V32.8731C218.923 33.7514 219.626 34.4541 220.504 34.4541H228.643C229.521 34.4541 230.224 33.7514 230.224 32.8731C230.224 31.9948 229.521 31.2922 228.643 31.2922H222.085V27.6033H227.647C228.526 27.6033 229.228 26.9592 229.228 26.0809C229.228 25.2026 228.526 24.5585 227.647 24.5585H222.085V20.9282H223.783C224.661 20.9282 225.364 20.2255 225.364 19.3472C225.364 18.4689 224.661 17.7663 223.783 17.7663L220.504 17.7077Z" fill="#208A88"/>
<path d="M228.584 17.7077C227.706 17.7077 227.003 18.4103 227.003 19.2887C227.003 20.167 227.706 20.8696 228.584 20.8696C229.462 20.8696 230.165 20.167 230.165 19.2887C230.165 18.4103 229.462 17.7077 228.584 17.7077Z" fill="#208A88"/>
<path d="M159.257 17.7077C159.198 17.7077 159.081 17.7077 159.023 17.7663C158.32 17.942 157.852 18.586 157.852 19.2887V32.8731C157.852 33.7515 158.554 34.4541 159.433 34.4541C160.311 34.4541 161.013 33.7515 161.013 32.8731V24.7342L165.464 33.5758C165.756 34.1028 166.283 34.3955 166.869 34.3955C167.454 34.3955 167.981 34.1028 168.274 33.5758L172.958 24.5585V28.0717C172.958 28.95 173.661 29.6527 174.539 29.6527C175.418 29.6527 176.12 28.95 176.12 28.0717V19.2301C176.12 18.5275 175.593 17.8834 174.949 17.7077C174.247 17.5321 173.485 17.8248 173.193 18.4689L166.927 30.004L160.838 18.4689C160.486 18.0005 159.842 17.6492 159.257 17.7077Z" fill="#208A88"/>
<path d="M85.0692 17.2979C80.2092 17.2979 76.2861 21.221 76.2861 26.1395C76.2861 30.9994 80.2092 34.9225 85.0692 34.9225C89.9291 34.9225 93.9108 30.9994 93.9108 26.1395C93.8522 21.221 89.9291 17.2979 85.0692 17.2979ZM85.0692 31.7021C81.9658 31.7021 79.448 29.2428 79.448 26.0809C79.448 22.9776 81.9658 20.4598 85.0692 20.4598C88.1725 20.4598 90.6903 22.9776 90.6903 26.0809C90.6903 29.2428 88.1725 31.7021 85.0692 31.7021Z" fill="#208A88"/>
<path d="M248.141 23.0361C248.141 19.7571 245.916 17.7077 242.52 17.7077H237.367C236.489 17.7077 235.786 18.4103 235.786 19.2887V32.8731C235.786 33.7514 236.489 34.4541 237.367 34.4541C238.245 34.4541 238.948 33.7514 238.948 32.8731V28.5401H242.403L243.105 29.7112C243.574 30.4724 244.569 30.6481 245.272 30.1796C246.736 29.2428 245.565 27.7204 245.565 27.7204C247.263 26.7835 248.141 25.0855 248.141 23.0361ZM242.461 25.8467H238.948V20.811H242.461C244.101 20.811 244.921 21.8065 244.921 23.2703C244.979 24.5585 244.335 25.8467 242.461 25.8467Z" fill="#208A88"/>
<path d="M130.858 27.6033L126.583 18.586C126.291 18.059 125.764 17.6492 125.12 17.6492C124.476 17.6492 123.949 18.0005 123.656 18.586L117.215 32.1705C116.864 32.9902 117.215 33.9271 117.976 34.2784C118.737 34.6297 119.674 34.2784 120.084 33.5172L121.606 30.3553H129.628C130.155 30.3553 130.682 30.0626 130.916 29.6527C131.561 28.8915 131.092 28.1888 130.858 27.6033ZM122.953 27.6618L125.178 22.9776L127.403 27.6618H122.953Z" fill="#208A88"/>
<path d="M195.15 27.6033L190.875 18.586C190.641 18.059 190.056 17.6492 189.412 17.6492C188.767 17.6492 188.241 18.0005 187.948 18.586L181.507 32.1705C181.156 32.9902 181.507 33.9271 182.268 34.2784C183.088 34.6297 183.966 34.2784 184.376 33.5172L185.898 30.3553H193.92C194.447 30.3553 194.974 30.0626 195.267 29.6527C195.852 28.8915 195.384 28.1888 195.15 27.6033ZM187.245 27.6618L189.47 22.9776L191.695 27.6618H187.245Z" fill="#208A88"/>
<path d="M60.7694 29.5356C59.8911 29.5356 59.1885 30.2382 59.1885 31.1165C59.1885 31.9948 59.8911 32.6975 60.7694 32.6975C61.6477 32.6975 62.3504 31.9948 62.3504 31.1165C62.3504 30.1797 61.6477 29.5356 60.7694 29.5356Z" fill="#208A88"/>
<path d="M254.992 29.5356C254.114 29.5356 253.411 30.2382 253.411 31.1165C253.411 31.9948 254.114 32.6975 254.992 32.6975C255.87 32.6975 256.573 31.9948 256.573 31.1165C256.573 30.1797 255.87 29.5356 254.992 29.5356Z" fill="#208A88"/>
<path d="M247.087 31.2336C246.208 31.2336 245.506 31.9363 245.506 32.8146C245.506 33.6929 246.208 34.3955 247.087 34.3955C247.965 34.3955 248.668 33.6929 248.668 32.8146C248.668 31.9948 247.965 31.2336 247.087 31.2336Z" fill="#208A88"/>
<path d="M131.619 31.2922C130.741 31.2922 130.038 31.9948 130.038 32.8731C130.038 33.7514 130.741 34.4541 131.619 34.4541C132.497 34.4541 133.2 33.7514 133.2 32.8731C133.2 31.9948 132.497 31.2922 131.619 31.2922Z" fill="#208A88"/>
<path d="M144.266 31.2922C143.388 31.2922 142.686 31.9948 142.686 32.8731C142.686 33.7514 143.388 34.4541 144.266 34.4541C145.145 34.4541 145.847 33.7514 145.847 32.8731C145.847 31.9948 145.145 31.2922 144.266 31.2922Z" fill="#208A88"/>
<path d="M174.422 31.2922C173.543 31.2922 172.841 31.9948 172.841 32.8731C172.841 33.7514 173.543 34.4541 174.422 34.4541C175.3 34.4541 176.003 33.7514 176.003 32.8731C176.061 31.9948 175.359 31.2922 174.422 31.2922Z" fill="#208A88"/>
<path d="M195.911 31.2922C195.033 31.2922 194.33 31.9948 194.33 32.8731C194.33 33.7514 195.033 34.4541 195.911 34.4541C196.789 34.4541 197.492 33.7514 197.492 32.8731C197.492 31.9948 196.789 31.2922 195.911 31.2922Z" fill="#208A88"/>
<path d="M92.3886 33.4587C91.5103 33.4587 90.8076 34.1613 90.8076 35.0396C90.8076 35.9179 91.5103 36.6206 92.3886 36.6206C93.2669 36.6206 93.9695 35.9179 93.9695 35.0396C93.9695 34.1613 93.2669 33.4587 92.3886 33.4587Z" fill="#208A88"/>
</mask>
<g mask="url(#mask0_4_786)">
<rect x="58.9238" y="17.1581" width="207.28" height="19.9083" fill="white"/>
</g>
</g>
<defs>
<filter id="filter0_d_4_786" x="0.203501" y="0.203196" width="50.2385" height="50.2391" filterUnits="userSpaceOnUse" color-interpolation-filters="sRGB">
<feFlood flood-opacity="0" result="BackgroundImageFix"/>
<feColorMatrix in="SourceAlpha" type="matrix" values="0 0 0 0 0 0 0 0 0 0 0 0 0 0 0 0 0 0 127 0" result="hardAlpha"/>
<feOffset/>
<feGaussianBlur stdDeviation="2.41534"/>
<feComposite in2="hardAlpha" operator="out"/>
<feColorMatrix type="matrix" values="0 0 0 0 0.0196078 0 0 0 0 0.858824 0 0 0 0 0.94902 0 0 0 0.6 0"/>
<feBlend mode="normal" in2="BackgroundImageFix" result="effect1_dropShadow_4_786"/>
<feBlend mode="normal" in="SourceGraphic" in2="effect1_dropShadow_4_786" result="shape"/>
</filter>
<filter id="filter1_d_4_786" x="12.6417" y="9.86438" width="25.3602" height="30.9163" filterUnits="userSpaceOnUse" color-interpolation-filters="sRGB">
<feFlood flood-opacity="0" result="BackgroundImageFix"/>
<feColorMatrix in="SourceAlpha" type="matrix" values="0 0 0 0 0 0 0 0 0 0 0 0 0 0 0 0 0 0 127 0" result="hardAlpha"/>
<feOffset/>
<feGaussianBlur stdDeviation="2.89841"/>
<feColorMatrix type="matrix" values="0 0 0 0 1 0 0 0 0 1 0 0 0 0 1 0 0 0 0.6 0"/>
<feBlend mode="hard-light" in2="BackgroundImageFix" result="effect1_dropShadow_4_786"/>
<feBlend mode="normal" in="SourceGraphic" in2="effect1_dropShadow_4_786" result="shape"/>
</filter>
<linearGradient id="paint0_linear_4_786" x1="42.3858" y1="8.73244" x2="9.69257" y2="42.6254" gradientUnits="userSpaceOnUse">
<stop stop-color="#05DBF2"/>
<stop offset="1" stop-color="#5AE2D1"/>
</linearGradient>
</defs>
</svg>
